<svg xmlns="http://www.w3.org/2000/svg" xmlns:xlink="http://www.w3.org/1999/xlink" viewBox="0 0 300 50" xmlns:v="https://vecta.io/nano"><path d="M215.14 15.47l-5.68 1a4.13 4.13 0 0 0-1.3-2.56 3.93 3.93 0 0 0-2.64-.86 4.31 4.31 0 0 0-3.43 1.49q-1.28 1.49-1.28 5 0 3.88 1.3 5.48a4.27 4.27 0 0 0 3.5 1.6 3.88 3.88 0 0 0 2.69-.93 5.61 5.61 0 0 0 1.48-3.21l5.66 1a10 10 0 0 1-3.44 5.83 10.47 10.47 0 0 1-6.71 2 10 10 0 0 1-7.62-3q-2.84-3-2.84-8.35 0-5.35 2.85-8.4a10.12 10.12 0 0 1 7.71-3 10.52 10.52 0 0 1 6.33 1.71 9.49 9.49 0 0 1 3.42 5.2zM225.25.74V11.8a8.63 8.63 0 0 1 10.25-2.52 5.87 5.87 0 0 1 2.41 1.89A6.84 6.84 0 0 1 239 13.7a22.76 22.76 0 0 1 .3 4.33v12.78h-5.76V19.3a17 17 0 0 0-.33-4.35 2.85 2.85 0 0 0-1.16-1.47 3.73 3.73 0 0 0-2.08-.54 4.78 4.78 0 0 0-2.56.7 4 4 0 0 0-1.65 2.1 12.55 12.55 0 0 0-.52 4.15v10.92h-5.76V.74zm24.22 14.93l-5.23-.94a8.15 8.15 0 0 1 3-4.68q2.15-1.52 6.4-1.52a13.79 13.79 0 0 1 5.74.91 5.73 5.73 0 0 1 2.66 2.32q.77 1.41.77 5.16l-.06 6.73a23.36 23.36 0 0 0 .28 4.23 12.35 12.35 0 0 0 1 2.92h-5.7q-.23-.57-.55-1.7-.14-.51-.21-.68a10.39 10.39 0 0 1-3.16 2.15 9 9 0 0 1-3.59.72 7.42 7.42 0 0 1-5.3-1.83 6.07 6.07 0 0 1-1.94-4.61 6.19 6.19 0 0 1 .88-3.29 5.76 5.76 0 0 1 2.54-2.21 19.32 19.32 0 0 1 4.58-1.35 31.34 31.34 0 0 0 5.6-1.42V16a3 3 0 0 0-.82-2.37 4.92 4.92 0 0 0-3.1-.71 4.13 4.13 0 0 0-2.4.6 4.2 4.2 0 0 0-1.39 2.15zm7.71 4.68a36 36 0 0 1-3.51.88 10.56 10.56 0 0 0-3.14 1 2.4 2.4 0 0 0-1.13 2 2.82 2.82 0 0 0 .9 2.09 3.15 3.15 0 0 0 2.3.88 5 5 0 0 0 3-1 3.61 3.61 0 0 0 1.4-1.89 11.39 11.39 0 0 0 .23-2.81zm11.34-14.27V.74h5.76v5.34zm0 24.73V9h5.76v21.81zm31.48 0h-5.76V19.69a17.18 17.18 0 0 0-.37-4.56 3.2 3.2 0 0 0-1.2-1.61 3.43 3.43 0 0 0-2-.57 4.62 4.62 0 0 0-2.69.82 4.13 4.13 0 0 0-1.63 2.17 18.78 18.78 0 0 0-.44 5v9.86h-5.76V9h5.35v3.2a8.93 8.93 0 0 1 10.66-3 5.85 5.85 0 0 1 2.39 1.8 6.36 6.36 0 0 1 1.13 2.42 18 18 0 0 1 .32 3.88z" fill="#11426d"/><path d="M14.67 23.88l5.74 1a9.42 9.42 0 0 1-3.5 4.81 10.27 10.27 0 0 1-6 1.65q-5.68 0-8.41-3.71a12.47 12.47 0 0 1-2.13-7.55q0-5.41 2.83-8.48a9.32 9.32 0 0 1 7.16-3.07A9.67 9.67 0 0 1 18 11.75q2.81 3.21 2.69 9.83H6.28a5.83 5.83 0 0 0 1.39 4A4.36 4.36 0 0 0 11 27a3.53 3.53 0 0 0 2.28-.74 4.56 4.56 0 0 0 1.39-2.38zm.33-5.83a5.55 5.55 0 0 0-1.29-3.8 4 4 0 0 0-3-1.3 4 4 0 0 0-3.12 1.37 5.32 5.32 0 0 0-1.21 3.73zm29.69 1.7l5.89 1.87a13.2 13.2 0 0 1-4.5 7.31 12.84 12.84 0 0 1-8 2.39 12.93 12.93 0 0 1-9.84-4.09Q24.39 23.14 24.39 16q0-7.51 3.88-11.66A13.29 13.29 0 0 1 38.46.23a12.5 12.5 0 0 1 9 3.26A11.86 11.86 0 0 1 50.49 9l-6 1.44a6.21 6.21 0 0 0-6.34-5 6.84 6.84 0 0 0-5.42 2.4q-2.08 2.4-2.08 7.77 0 5.7 2.05 8.12a6.66 6.66 0 0 0 5.3 2.4 6.08 6.08 0 0 0 4.16-1.54 8.94 8.94 0 0 0 2.53-4.84zm9.72-.14a11.78 11.78 0 0 1 1.41-5.56 9.71 9.71 0 0 1 4-4.1 11.9 11.9 0 0 1 5.79-1.41 10.87 10.87 0 0 1 8.1 3.21 11.09 11.09 0 0 1 3.16 8.11A11.22 11.22 0 0 1 73.7 28a10.78 10.78 0 0 1-8 3.25 12.64 12.64 0 0 1-5.7-1.3 9.28 9.28 0 0 1-4.13-4 13.22 13.22 0 0 1-1.46-6.34zm5.91.31a7.21 7.21 0 0 0 1.54 5 5 5 0 0 0 7.58 0 7.32 7.32 0 0 0 1.53-5A7.18 7.18 0 0 0 69.43 15a5 5 0 0 0-7.58 0 7.22 7.22 0 0 0-1.53 4.92zM81 9h5.31v3a8.55 8.55 0 0 1 6.79-3.47 7.31 7.31 0 0 1 3.63.86A6.62 6.62 0 0 1 99.22 12a10.06 10.06 0 0 1 3.1-2.6 7.6 7.6 0 0 1 3.55-.86 7.9 7.9 0 0 1 4.06 1 6 6 0 0 1 2.48 2.86 12.41 12.41 0 0 1 .59 4.51v13.9h-5.76V18.36q0-3.24-.59-4.18a2.73 2.73 0 0 0-2.46-1.23 3.93 3.93 0 0 0-2.28.74 4.09 4.09 0 0 0-1.54 2.16 15.55 15.55 0 0 0-.47 4.5v10.46h-5.77V18.87a16.56 16.56 0 0 0-.31-4.1 2.62 2.62 0 0 0-1-1.37 3 3 0 0 0-1.75-.45 4.2 4.2 0 0 0-2.4.72 3.94 3.94 0 0 0-1.53 2.07 15.4 15.4 0 0 0-.46 4.49v10.58H81z" fill="#f80d19"/><path d="M150.85 3.42H134a4.41 4.41 0 0 0-.49 0c-1.71.37-13 3.3-11.48 16.36 0 0 1.43 9.58 10.15 10.7h.3 10.35a3.38 3.38 0 0 0 3-3.65s0-3.34-2.81-3.34h-8.81a6.44 6.44 0 0 1-5.45-6.49 7.29 7.29 0 0 1 5.16-6.79 2.43 2.43 0 0 1 .63-.16l13.74-.05 2.19.07s5.31 1.52 5.54 8.05a2.89 2.89 0 0 0 2.89 2.58c2.66.08 3.42-2.73 3.42-2.73s2-11.45-11.16-14.47z" fill="#11426d"/><path d="M158.35 30.54h16.88a4.41 4.41 0 0 0 .49 0c1.71-.37 13-3.3 11.48-16.36 0 0-1.43-9.58-10.15-10.7h-.3-10.36a3.38 3.38 0 0 0-3 3.65s0 3.34 2.81 3.34h8.81a6.44 6.44 0 0 1 5.43 6.53 7.29 7.29 0 0 1-5.16 6.79 2.43 2.43 0 0 1-.63.16l-13.74.05-2.19-.07s-5.31-1.52-5.54-8.05a2.89 2.89 0 0 0-2.89-2.58c-2.66-.08-3.42 2.73-3.42 2.73s-2 11.45 11.16 14.47z" fill="#f80d19"/><g fill="#11426d"><path d="M8.42 44.4l1.22.17A5 5 0 0 1 8 47a4.12 4.12 0 0 1-2.49.81 3.55 3.55 0 0 1-2.67-1 4 4 0 0 1-1-2.91 5.77 5.77 0 0 1 1.5-4.09 4.35 4.35 0 0 1 3.32-1.44 3.54 3.54 0 0 1 2.34.72 3.09 3.09 0 0 1 1.06 2.1l-1.15.11a2.47 2.47 0 0 0-.75-1.48 2.18 2.18 0 0 0-1.47-.49 3.21 3.21 0 0 0-2.74 1.49A5.15 5.15 0 0 0 3 43.87 3 3 0 0 0 3.74 46a2.39 2.39 0 0 0 1.82.74 2.72 2.72 0 0 0 1.74-.62 3.49 3.49 0 0 0 1.12-1.72zm3.13.7a4.6 4.6 0 0 1 1.15-3.21 3.22 3.22 0 0 1 2.5-1 2.63 2.63 0 0 1 2 .75 2.75 2.75 0 0 1 .74 2 4.89 4.89 0 0 1-.47 2.13 3.48 3.48 0 0 1-3.14 2 3.05 3.05 0 0 1-1.42-.33 2.3 2.3 0 0 1-1-.94 2.82 2.82 0 0 1-.36-1.4zm1.14-.1a2 2 0 0 0 .45 1.42 1.52 1.52 0 0 0 1.15.48 1.91 1.91 0 0 0 .73-.15 2.1 2.1 0 0 0 .67-.45 3 3 0 0 0 .53-.68 4 4 0 0 0 .35-.83 3.92 3.92 0 0 0 .2-1.19 2 2 0 0 0-.46-1.4 1.5 1.5 0 0 0-1.15-.5 1.93 1.93 0 0 0-1 .25 2.6 2.6 0 0 0-.8.74 3.29 3.29 0 0 0-.52 1.13 4.66 4.66 0 0 0-.15 1.18zm6.8 2.62l1.4-6.62h1l-.25 1.15a5.48 5.48 0 0 1 1.26-1 2.53 2.53 0 0 1 1.2-.31 1.79 1.79 0 0 1 1.28.44 1.53 1.53 0 0 1 .46 1.17 6.45 6.45 0 0 1-.16 1.16l-.85 4h-1.11l.89-4.2a4.75 4.75 0 0 0 .13-.9.69.69 0 0 0-.23-.54 1 1 0 0 0-.67-.21 2.25 2.25 0 0 0-1.56.62 4 4 0 0 0-1 2.14l-.65 3.08zm8.14 0L29 41h1l-.25 1.15a5.48 5.48 0 0 1 1.26-1 2.53 2.53 0 0 1 1.2-.31 1.79 1.79 0 0 1 1.28.44 1.53 1.53 0 0 1 .51 1.16 6.45 6.45 0 0 1-.16 1.16l-.85 4h-1.12l.89-4.2a4.75 4.75 0 0 0 .13-.9.69.69 0 0 0-.23-.54 1 1 0 0 0-.67-.21 2.25 2.25 0 0 0-1.56.62 4 4 0 0 0-1 2.14l-.65 3.08zm13.07-2.26l1.11.11a3.32 3.32 0 0 1-1.1 1.53 3.06 3.06 0 0 1-2.05.74 2.8 2.8 0 0 1-1.37-.34 2.24 2.24 0 0 1-.95-1A3.26 3.26 0 0 1 36 45a4.67 4.67 0 0 1 .51-2.11 3.6 3.6 0 0 1 1.32-1.52 3.28 3.28 0 0 1 1.75-.5 2.55 2.55 0 0 1 1.91.74 2.76 2.76 0 0 1 .72 2 5.87 5.87 0 0 1-.09 1H37.2a2.71 2.71 0 0 0 0 .35 2.08 2.08 0 0 0 .43 1.42 1.36 1.36 0 0 0 1.06.49 2.05 2.05 0 0 0 1.15-.38 2.48 2.48 0 0 0 .86-1.13zm-3.32-1.64h3.76v-.25a1.82 1.82 0 0 0-.43-1.3 1.45 1.45 0 0 0-1.1-.45 2 2 0 0 0-1.33.5 3 3 0 0 0-.9 1.5zm11.16 1.48l1.14.12a3.79 3.79 0 0 1-1.22 1.84 2.9 2.9 0 0 1-1.8.6 2.35 2.35 0 0 1-1.77-.7 2.69 2.69 0 0 1-.68-2 5.52 5.52 0 0 1 .44-2.06 3.46 3.46 0 0 1 1.25-1.59 3.24 3.24 0 0 1 1.85-.55 2.37 2.37 0 0 1 1.71.6 2.1 2.1 0 0 1 .63 1.54l-1.09.11a1.34 1.34 0 0 0-.37-1 1.31 1.31 0 0 0-1-.36 1.78 1.78 0 0 0-1.19.43 2.83 2.83 0 0 0-.79 1.31 5.42 5.42 0 0 0-.29 1.69 1.86 1.86 0 0 0 .38 1.27 1.2 1.2 0 0 0 .93.42 1.65 1.65 0 0 0 1.06-.42 2.75 2.75 0 0 0 .81-1.25zM54 46.7l-.19.92a3.17 3.17 0 0 1-.79.11 1.66 1.66 0 0 1-1.09-.33.84.84 0 0 1-.3-.68 6.75 6.75 0 0 1 .16-1l.81-3.85h-.9l.18-.87h.9l.35-1.63 1.31-.78-.5 2.41h1.12l-.19.87h-1.12L53 45.53a6.76 6.76 0 0 0-.14.84.39.39 0 0 0 .12.31.56.56 0 0 0 .38.11 2.77 2.77 0 0 0 .64-.09zm1.84.92l1.4-6.62h1.14L57 47.62zm1.67-7.87l.27-1.28h1.14l-.27 1.28zm2.2 7.87l1.4-6.62h1l-.25 1.15a5.48 5.48 0 0 1 1.26-1 2.53 2.53 0 0 1 1.2-.31 1.79 1.79 0 0 1 1.28.44 1.53 1.53 0 0 1 .46 1.17 6.45 6.45 0 0 1-.16 1.16l-.85 4h-1.11l.89-4.2a4.75 4.75 0 0 0 .13-.9.69.69 0 0 0-.23-.54 1 1 0 0 0-.67-.21 2.25 2.25 0 0 0-1.56.62 4 4 0 0 0-1 2.14l-.65 3.08zm8.08.6l1.15.11a1.15 1.15 0 0 0 .09.58.71.71 0 0 0 .34.3 2 2 0 0 0 .8.14 1.86 1.86 0 0 0 1.49-.53 4 4 0 0 0 .55-1.55l.11-.54a2.66 2.66 0 0 1-1.89.89 2.22 2.22 0 0 1-1.7-.74 3 3 0 0 1-.68-2.09 4.24 4.24 0 0 1 1.82-3.47 2.8 2.8 0 0 1 1.53-.48 2.23 2.23 0 0 1 2 1.24l.27-1.08h1l-1.35 6.4a5.3 5.3 0 0 1-.53 1.6 2.43 2.43 0 0 1-1 .91 3.23 3.23 0 0 1-1.48.32 4.19 4.19 0 0 1-1.39-.21 1.76 1.76 0 0 1-.87-.6 1.51 1.51 0 0 1-.29-.91 2 2 0 0 1 .03-.29zm1.43-3.53a3 3 0 0 0 .13 1 1.59 1.59 0 0 0 .54.73 1.3 1.3 0 0 0 .78.25 1.93 1.93 0 0 0 1.12-.39 2.71 2.71 0 0 0 .9-1.21 4 4 0 0 0 .31-1.54 1.82 1.82 0 0 0-.46-1.3 1.5 1.5 0 0 0-1.13-.48 1.62 1.62 0 0 0-.81.22 2.41 2.41 0 0 0-.73.67 3.21 3.21 0 0 0-.51 1.08 4 4 0 0 0-.15.96zm11.45 2.93l1.94-9.15h2.86a7.85 7.85 0 0 1 1.16.06 2.89 2.89 0 0 1 1 .37 1.79 1.79 0 0 1 .66.72 2.32 2.32 0 0 1-.14 2.38 2.57 2.57 0 0 1-1.28.87 2.22 2.22 0 0 1 1.12.73 1.84 1.84 0 0 1 .37 1.15 2.67 2.67 0 0 1-.44 1.45 3 3 0 0 1-1.16 1.07 3.43 3.43 0 0 1-1.61.38zm1.46-1h2.11a7.29 7.29 0 0 0 1.13-.06 2.49 2.49 0 0 0 1-.34 1.7 1.7 0 0 0 .57-.63 1.74 1.74 0 0 0 .21-.82 1.19 1.19 0 0 0-.41-1 2.56 2.56 0 0 0-1.55-.33H82.8zm.87-4.25h1.87a3.39 3.39 0 0 0 1.93-.42 1.43 1.43 0 0 0 .59-1.24 1.2 1.2 0 0 0-.18-.67 1.06 1.06 0 0 0-.49-.41 3.44 3.44 0 0 0-1.15-.13h-2zm11.69 4.05a3.38 3.38 0 0 1-2.47 1.35 1.77 1.77 0 0 1-1.22-.44 1.41 1.41 0 0 1-.48-1.08 8.15 8.15 0 0 1 .21-1.44l.79-3.81h1.14l-.9 4.24a4.22 4.22 0 0 0-.11.82.75.75 0 0 0 .23.58 1 1 0 0 0 .68.21 2.06 2.06 0 0 0 .94-.23 2.48 2.48 0 0 0 .79-.62 3.25 3.25 0 0 0 .54-.93 8.2 8.2 0 0 0 .32-1.2l.6-2.87h1.14l-1.4 6.63h-1.05zm3.68-1.07l1.14-.07a2 2 0 0 0 .15.83 1.2 1.2 0 0 0 .56.56 2 2 0 0 0 .95.22 1.81 1.81 0 0 0 1.14-.3.88.88 0 0 0 .38-.71.84.84 0 0 0-.23-.56 3.6 3.6 0 0 0-1.14-.65 10.9 10.9 0 0 1-1.16-.54 1.86 1.86 0 0 1-.64-.6 1.48 1.48 0 0 1-.21-.8 1.74 1.74 0 0 1 .63-1.35 2.57 2.57 0 0 1 1.77-.56 2.83 2.83 0 0 1 1.92.58 2 2 0 0 1 .68 1.52l-1.12.07a1.27 1.27 0 0 0-.43-.95 1.69 1.69 0 0 0-1.14-.35 1.42 1.42 0 0 0-.92.27.76.76 0 0 0-.33.58.7.7 0 0 0 .28.55 4.76 4.76 0 0 0 1 .5 6.61 6.61 0 0 1 1.65.89 1.68 1.68 0 0 1 .54 1.26 1.77 1.77 0 0 1-.31 1 2.1 2.1 0 0 1-.93.76 3.57 3.57 0 0 1-1.48.28 3.37 3.37 0 0 1-2-.57 2 2 0 0 1-.75-1.86zm7.26 2.27L107 41h1.14l-1.4 6.63zm1.67-7.87l.27-1.28h1.14l-.27 1.28zm2.2 7.87l1.4-6.62h1l-.25 1.15a5.48 5.48 0 0 1 1.26-1 2.53 2.53 0 0 1 1.2-.31 1.79 1.79 0 0 1 1.28.44 1.53 1.53 0 0 1 .46 1.17 6.45 6.45 0 0 1-.16 1.16l-.85 4h-1.14l.89-4.2a4.75 4.75 0 0 0 .13-.9.69.69 0 0 0-.23-.54 1 1 0 0 0-.67-.21 2.25 2.25 0 0 0-1.56.62 4 4 0 0 0-1 2.14l-.65 3.08zm13.07-2.26l1.11.11a3.32 3.32 0 0 1-1.1 1.55 3.06 3.06 0 0 1-2.05.74 2.8 2.8 0 0 1-1.37-.34 2.24 2.24 0 0 1-.95-1 3.26 3.26 0 0 1-.32-1.48 4.67 4.67 0 0 1 .51-2.11 3.6 3.6 0 0 1 1.32-1.52 3.28 3.28 0 0 1 1.75-.5 2.55 2.55 0 0 1 1.91.74 2.76 2.76 0 0 1 .72 2 5.87 5.87 0 0 1-.09 1h-4.93a2.68 2.68 0 0 0 0 .35 2.08 2.08 0 0 0 .43 1.42 1.36 1.36 0 0 0 1.06.49 2.05 2.05 0 0 0 1.15-.38 2.48 2.48 0 0 0 .85-1.07zm-3.32-1.64H123v-.25a1.82 1.82 0 0 0-.43-1.3 1.45 1.45 0 0 0-1.1-.45 2 2 0 0 0-1.33.5 3 3 0 0 0-.89 1.5zm6.65 1.63l1.14-.07a2 2 0 0 0 .15.83 1.2 1.2 0 0 0 .56.56 2 2 0 0 0 .95.22 1.81 1.81 0 0 0 1.14-.3.88.88 0 0 0 .38-.71.84.84 0 0 0-.23-.56 3.6 3.6 0 0 0-1.14-.65 10.89 10.89 0 0 1-1.16-.54 1.86 1.86 0 0 1-.64-.6 1.48 1.48 0 0 1-.21-.8 1.74 1.74 0 0 1 .63-1.35 2.57 2.57 0 0 1 1.77-.56 2.83 2.83 0 0 1 1.92.58 2 2 0 0 1 .68 1.52l-1.12.07a1.27 1.27 0 0 0-.43-.95 1.69 1.69 0 0 0-1.14-.35 1.42 1.42 0 0 0-.92.27.76.76 0 0 0-.33.58.7.7 0 0 0 .28.55 4.76 4.76 0 0 0 1 .5 6.62 6.62 0 0 1 1.65.89 1.68 1.68 0 0 1 .54 1.26 1.77 1.77 0 0 1-.31 1 2.1 2.1 0 0 1-.93.76 3.57 3.57 0 0 1-1.48.28 3.37 3.37 0 0 1-2-.57 2 2 0 0 1-.75-1.86z"/><use xlink:href="#B"/><path d="M145.54 45.36l1.11.11a3.32 3.32 0 0 1-1.1 1.55 3.06 3.06 0 0 1-2.05.74 2.8 2.8 0 0 1-1.37-.34 2.24 2.24 0 0 1-.95-1 3.26 3.26 0 0 1-.32-1.48 4.67 4.67 0 0 1 .51-2.11 3.6 3.6 0 0 1 1.32-1.52 3.28 3.28 0 0 1 1.75-.5 2.55 2.55 0 0 1 1.91.74 2.76 2.76 0 0 1 .72 2 5.87 5.87 0 0 1-.09 1H142a2.68 2.68 0 0 0 0 .35 2.08 2.08 0 0 0 .43 1.42 1.36 1.36 0 0 0 1.06.49 2.05 2.05 0 0 0 1.15-.38 2.48 2.48 0 0 0 .9-1.07zm-3.32-1.64H146v-.25a1.82 1.82 0 0 0-.43-1.3 1.45 1.45 0 0 0-1.1-.45 2 2 0 0 0-1.33.5 3 3 0 0 0-.92 1.5zm6.65 1.63l1.14-.07a2 2 0 0 0 .15.83 1.2 1.2 0 0 0 .56.56 2 2 0 0 0 .95.22 1.81 1.81 0 0 0 1.14-.3.88.88 0 0 0 .38-.71.84.84 0 0 0-.23-.56 3.6 3.6 0 0 0-1.14-.65 10.89 10.89 0 0 1-1.16-.54 1.86 1.86 0 0 1-.64-.6 1.48 1.48 0 0 1-.21-.8 1.74 1.74 0 0 1 .63-1.35 2.57 2.57 0 0 1 1.77-.56 2.83 2.83 0 0 1 1.92.58 2 2 0 0 1 .68 1.52l-1.11.08a1.27 1.27 0 0 0-.43-.95 1.69 1.69 0 0 0-1.14-.35 1.42 1.42 0 0 0-.92.27.76.76 0 0 0-.33.58.7.7 0 0 0 .28.55 4.76 4.76 0 0 0 1 .5 6.62 6.62 0 0 1 1.65.89 1.68 1.68 0 0 1 .54 1.26 1.77 1.77 0 0 1-.31 1 2.1 2.1 0 0 1-.93.76 3.57 3.57 0 0 1-1.48.28 3.37 3.37 0 0 1-2-.57 2 2 0 0 1-.76-1.87zm14.53 1.35l-.19.92a3.17 3.17 0 0 1-.79.11 1.66 1.66 0 0 1-1.09-.33.84.84 0 0 1-.3-.68 6.75 6.75 0 0 1 .16-1l.81-3.85h-.9l.18-.87h.9l.35-1.63 1.31-.78-.51 2.41h1.12l-.19.87h-1.12l-.78 3.66a6.78 6.78 0 0 0-.14.84.39.39 0 0 0 .12.31.56.56 0 0 0 .38.11 2.76 2.76 0 0 0 .68-.09zm2.08-1.6a4.6 4.6 0 0 1 1.15-3.21 3.22 3.22 0 0 1 2.5-1 2.63 2.63 0 0 1 2 .75 2.75 2.75 0 0 1 .74 2 4.89 4.89 0 0 1-.47 2.13 3.48 3.48 0 0 1-3.14 2 3.05 3.05 0 0 1-1.42-.33 2.3 2.3 0 0 1-1-.94 2.82 2.82 0 0 1-.36-1.4zm1.14-.11a2 2 0 0 0 .45 1.42 1.52 1.52 0 0 0 1.15.48 1.91 1.91 0 0 0 .73-.15 2.1 2.1 0 0 0 .67-.45 3 3 0 0 0 .53-.68 4 4 0 0 0 .35-.83 3.92 3.92 0 0 0 .2-1.19 2 2 0 0 0-.46-1.4 1.5 1.5 0 0 0-1.15-.5 1.93 1.93 0 0 0-1 .25 2.6 2.6 0 0 0-.8.74 3.29 3.29 0 0 0-.52 1.13 4.66 4.66 0 0 0-.15 1.19zm18.71-.59l1.22.17a5 5 0 0 1-1.69 2.4 4.12 4.12 0 0 1-2.49.81 3.55 3.55 0 0 1-2.67-1 4 4 0 0 1-1-2.91 5.77 5.77 0 0 1 1.5-4.09 4.35 4.35 0 0 1 3.32-1.44 3.54 3.54 0 0 1 2.38.78 3.09 3.09 0 0 1 1.06 2.1l-1.15.11a2.47 2.47 0 0 0-.75-1.48 2.18 2.18 0 0 0-1.47-.49 3.21 3.21 0 0 0-2.74 1.49 5.15 5.15 0 0 0-.91 3.05 3 3 0 0 0 .7 2.15 2.39 2.39 0 0 0 1.82.74 2.72 2.72 0 0 0 1.74-.62 3.49 3.49 0 0 0 1.13-1.77zm3.12.7a4.6 4.6 0 0 1 1.15-3.21 3.22 3.22 0 0 1 2.5-1 2.63 2.63 0 0 1 2 .75 2.75 2.75 0 0 1 .74 2 4.89 4.89 0 0 1-.47 2.13 3.48 3.48 0 0 1-3.14 2 3.05 3.05 0 0 1-1.42-.33 2.3 2.3 0 0 1-1-.94 2.82 2.82 0 0 1-.36-1.4zm1.14-.11a2 2 0 0 0 .45 1.42 1.51 1.51 0 0 0 1.15.48 1.91 1.91 0 0 0 .73-.15 2.1 2.1 0 0 0 .67-.45 3 3 0 0 0 .53-.68 4 4 0 0 0 .35-.83 3.93 3.93 0 0 0 .2-1.19 2 2 0 0 0-.46-1.4 1.5 1.5 0 0 0-1.15-.5 1.93 1.93 0 0 0-1 .25 2.6 2.6 0 0 0-.8.74 3.29 3.29 0 0 0-.52 1.13 4.65 4.65 0 0 0-.15 1.19z"/><use xlink:href="#C"/><path d="M204.64 45.35l1.14-.07a2 2 0 0 0 .15.83 1.2 1.2 0 0 0 .56.56 2 2 0 0 0 .95.22 1.81 1.81 0 0 0 1.14-.3.88.88 0 0 0 .38-.71.84.84 0 0 0-.23-.56 3.6 3.6 0 0 0-1.14-.65 10.89 10.89 0 0 1-1.16-.54 1.86 1.86 0 0 1-.64-.6 1.48 1.48 0 0 1-.21-.8 1.74 1.74 0 0 1 .63-1.35 2.57 2.57 0 0 1 1.77-.56 2.83 2.83 0 0 1 1.92.58 2 2 0 0 1 .68 1.52l-1.12.07a1.27 1.27 0 0 0-.43-.95 1.69 1.69 0 0 0-1.14-.35 1.42 1.42 0 0 0-.89.31.76.76 0 0 0-.33.58.7.7 0 0 0 .28.55 4.76 4.76 0 0 0 1 .5 6.62 6.62 0 0 1 1.65.89 1.68 1.68 0 0 1 .54 1.26 1.77 1.77 0 0 1-.31 1 2.1 2.1 0 0 1-.93.76 3.57 3.57 0 0 1-1.48.28 3.37 3.37 0 0 1-2-.57 2 2 0 0 1-.78-1.9zm11.89 1.07a3.38 3.38 0 0 1-2.47 1.35 1.77 1.77 0 0 1-1.25-.44 1.41 1.41 0 0 1-.48-1.08 8.14 8.14 0 0 1 .21-1.44l.81-3.83h1.14l-.9 4.24a4.21 4.21 0 0 0-.11.82.75.75 0 0 0 .23.58 1 1 0 0 0 .68.21 2.06 2.06 0 0 0 .94-.23 2.48 2.48 0 0 0 .79-.62 3.25 3.25 0 0 0 .54-.93 8.2 8.2 0 0 0 .32-1.2l.61-2.86h1.14l-1.4 6.63h-1.05zm3.56 1.2l1.4-6.63h1.14l-.23 1.09a4.55 4.55 0 0 1 1.14-1 2.27 2.27 0 0 1 1.09-.27 1.64 1.64 0 0 1 1 .33 1.55 1.55 0 0 1 .55.91 3.73 3.73 0 0 1 1.08-.93 2.45 2.45 0 0 1 1.19-.31 1.78 1.78 0 0 1 1.26.39 1.44 1.44 0 0 1 .42 1.1 5.77 5.77 0 0 1-.15 1l-.9 4.27H228l.92-4.38a4.07 4.07 0 0 0 .12-.77.65.65 0 0 0-.21-.51.85.85 0 0 0-.59-.19 2.08 2.08 0 0 0-1 .31 2.23 2.23 0 0 0-.82.8 5.33 5.33 0 0 0-.51 1.53l-.68 3.21H224l.95-4.48a3.46 3.46 0 0 0 .1-.65.7.7 0 0 0-.21-.52.73.73 0 0 0-.53-.2 2.06 2.06 0 0 0-1 .31 2.42 2.42 0 0 0-.87.85 5.05 5.05 0 0 0-.55 1.56l-.66 3.13zm16.65-2.26l1.11.11a3.32 3.32 0 0 1-1.1 1.55 3.06 3.06 0 0 1-2.05.74 2.8 2.8 0 0 1-1.37-.34 2.24 2.24 0 0 1-.95-1 3.26 3.26 0 0 1-.32-1.48 4.67 4.67 0 0 1 .51-2.11 3.6 3.6 0 0 1 1.32-1.52 3.28 3.28 0 0 1 1.75-.5 2.55 2.55 0 0 1 1.91.74 2.76 2.76 0 0 1 .72 2 5.87 5.87 0 0 1-.09 1h-4.93a2.74 2.74 0 0 0 0 .35 2.08 2.08 0 0 0 .43 1.42 1.36 1.36 0 0 0 1.06.49 2.05 2.05 0 0 0 1.15-.38 2.48 2.48 0 0 0 .85-1.07zm-3.32-1.64h3.76v-.25a1.82 1.82 0 0 0-.43-1.3 1.45 1.45 0 0 0-1.1-.45 2 2 0 0 0-1.33.5 3 3 0 0 0-.9 1.5zm6.58 3.9l1.4-6.63h1l-.28 1.35a4.63 4.63 0 0 1 1-1.14 1.68 1.68 0 0 1 1-.37 2 2 0 0 1 .84.24l-.47 1a1.09 1.09 0 0 0-.65-.21 1.77 1.77 0 0 0-1.23.66 5 5 0 0 0-1 2.38l-.61 2.72z"/><use xlink:href="#B" x="112.02"/><path d="M257.93 43.78a5.53 5.53 0 0 1 1.43-4 4.59 4.59 0 0 1 3.47-1.51 3.77 3.77 0 0 1 2.82 1.11 4.09 4.09 0 0 1 1.09 3 5.64 5.64 0 0 1-.55 2.48 5.28 5.28 0 0 1-1 1.48 4.83 4.83 0 0 1-1.34 1 4.62 4.62 0 0 1-2 .45 4 4 0 0 1-2-.52 3.42 3.42 0 0 1-1.38-1.46 4.41 4.41 0 0 1-.54-2.03zm1.22.06a3.26 3.26 0 0 0 .34 1.48 2.46 2.46 0 0 0 1 1.05 2.8 2.8 0 0 0 1.41.38 2.9 2.9 0 0 0 1.36-.33 3.82 3.82 0 0 0 1.15-.93 4.4 4.4 0 0 0 .8-1.47 5.35 5.35 0 0 0 .29-1.71 3 3 0 0 0-.77-2.18 2.53 2.53 0 0 0-1.91-.81 3.37 3.37 0 0 0-2.56 1.23 4.72 4.72 0 0 0-1.11 3.3z"/><use xlink:href="#C" x="71.8"/><path d="M276.24 47.62l1.93-9.15h1.14l-1.93 9.15zm3.87 0l1.4-6.63h1.14l-1.4 6.63zm1.67-7.87l.27-1.28h1.14l-.27 1.28zm2.22 7.87l1.4-6.63h1l-.25 1.15a5.48 5.48 0 0 1 1.26-1 2.53 2.53 0 0 1 1.2-.31 1.79 1.79 0 0 1 1.28.44 1.53 1.53 0 0 1 .46 1.17 6.44 6.44 0 0 1-.16 1.16l-.85 4h-1.14l.89-4.2a4.76 4.76 0 0 0 .13-.9.69.69 0 0 0-.22-.5 1 1 0 0 0-.67-.21 2.25 2.25 0 0 0-1.56.62 4 4 0 0 0-1 2.14l-.65 3.08zm13-2.26l1.11.11a3.33 3.33 0 0 1-1.1 1.55 3.06 3.06 0 0 1-2.05.74 2.8 2.8 0 0 1-1.37-.34 2.24 2.24 0 0 1-.95-1 3.26 3.26 0 0 1-.32-1.48 4.67 4.67 0 0 1 .51-2.11 3.6 3.6 0 0 1 1.32-1.52 3.28 3.28 0 0 1 1.75-.5 2.55 2.55 0 0 1 1.92.74 2.76 2.76 0 0 1 .72 2 5.87 5.87 0 0 1-.09 1h-4.93a2.74 2.74 0 0 0 0 .35 2.08 2.08 0 0 0 .43 1.42 1.36 1.36 0 0 0 1.06.49 2.05 2.05 0 0 0 1.15-.38 2.48 2.48 0 0 0 .84-1.07zm-3.32-1.64h3.76v-.25a1.82 1.82 0 0 0-.43-1.3 1.45 1.45 0 0 0-1.1-.45 2 2 0 0 0-1.33.5 3 3 0 0 0-.85 1.5z"/></g><defs ><path id="B" d="M133.31 45.35l1.14-.07a2 2 0 0 0 .15.83 1.2 1.2 0 0 0 .56.56 2 2 0 0 0 .95.22 1.81 1.81 0 0 0 1.14-.3.88.88 0 0 0 .38-.71.84.84 0 0 0-.23-.56 3.6 3.6 0 0 0-1.14-.65 10.9 10.9 0 0 1-1.16-.54 1.86 1.86 0 0 1-.64-.6 1.48 1.48 0 0 1-.21-.8 1.74 1.74 0 0 1 .63-1.35 2.57 2.57 0 0 1 1.77-.56 2.84 2.84 0 0 1 1.92.58 2 2 0 0 1 .68 1.52l-1.12.07a1.27 1.27 0 0 0-.43-.95 1.69 1.69 0 0 0-1.14-.35 1.42 1.42 0 0 0-.92.27.76.76 0 0 0-.33.58.7.7 0 0 0 .28.55 4.76 4.76 0 0 0 1 .5 6.61 6.61 0 0 1 1.65.89 1.68 1.68 0 0 1 .54 1.26 1.77 1.77 0 0 1-.31 1 2.1 2.1 0 0 1-.93.76 3.57 3.57 0 0 1-1.48.28 3.37 3.37 0 0 1-2-.57 2 2 0 0 1-.75-1.86z"/><path id="C" d="M196.39,47.62l1.4-6.63h1l-.25,1.15a5.48,5.48,0,0,1,1.26-1,2.53,2.53,0,0,1,1.2-.31,1.79,1.79,0,0,1,1.28.44,1.53,1.53,0,0,1,.46,1.17,6.44,6.44,0,0,1-.16,1.16l-.85,4h-1.14l.89-4.2a4.76,4.76,0,0,0,.13-.9.69.69,0,0,0-.23-.54,1,1,0,0,0-.67-.21,2.25,2.25,0,0,0-1.56.62,4,4,0,0,0-1,2.14l-.65,3.08Z"/></defs></svg>