<svg width="63" height="63" viewBox="0 0 63 63" fill="none" xmlns="http://www.w3.org/2000/svg">
<circle cx="31.1688" cy="31.1688" r="30.1688" fill="white" stroke="#F80D19" stroke-width="2"/>
<path d="M28.9326 21.7074H18.1284C18.0238 21.7017 17.9189 21.7017 17.8142 21.7074C16.7178 21.9398 9.47865 23.7801 10.4533 31.9827C10.4533 31.9827 11.3702 37.9997 16.9614 38.7031H17.1538H23.7902C24.353 38.6428 24.8694 38.3692 25.2288 37.9408C25.5883 37.5124 25.7624 36.9632 25.7138 36.4107C25.7138 36.4107 25.7138 34.3129 23.912 34.3129H18.2631C17.2757 34.1626 16.3774 33.6667 15.7349 32.9172C15.0923 32.1676 14.7489 31.2153 14.7685 30.2367C14.7931 29.2756 15.1259 28.3465 15.7198 27.581C16.3136 26.8156 17.1384 26.2526 18.0771 25.972C18.2066 25.921 18.3425 25.8872 18.4811 25.8715L27.2912 25.8401L28.6954 25.8841C28.6954 25.8841 32.1002 26.8388 32.2476 30.9401C32.2969 31.387 32.5136 31.8001 32.8559 32.0995C33.1983 32.3989 33.6418 32.5631 34.1007 32.5605C35.8063 32.6108 36.2936 30.8459 36.2936 30.8459C36.2936 30.8459 37.576 23.6544 29.1378 21.7576L28.9326 21.7074Z" fill="#11426D"/>
<path d="M33.7884 38.6988H44.6039C44.7084 38.7046 44.8133 38.7046 44.9178 38.6988C46.0135 38.4665 53.2473 36.6262 52.2734 28.4235C52.2734 28.4235 51.3571 22.4066 45.77 21.7031H45.5778H38.9399C38.3775 21.7634 37.8615 22.037 37.5023 22.4655C37.1431 22.8939 36.9691 23.4431 37.0177 23.9956C37.0177 23.9956 37.0177 26.0934 38.8181 26.0934H44.4629C45.4517 26.2469 46.3498 26.7476 46.9899 27.5022C47.63 28.2568 47.9684 29.2137 47.9421 30.1947C47.9175 31.1558 47.5849 32.0849 46.9915 32.8504C46.3981 33.6158 45.574 34.1787 44.6359 34.4593C44.5066 34.5104 44.3708 34.5442 44.2323 34.5598L35.4287 34.5912L34.0255 34.5473C34.0255 34.5473 30.6233 33.5926 30.4759 29.4913C30.4267 29.0443 30.2101 28.6312 29.868 28.3319C29.526 28.0325 29.0827 27.8682 28.6242 27.8708C26.9199 27.8206 26.4329 29.5855 26.4329 29.5855C26.4329 29.5855 25.1515 36.7769 33.5834 38.6737L33.7884 38.6988Z" fill="#F80D19"/>
</svg>
